<mxfile host="app.diagrams.net" agent="Mozilla/5.0 (Windows NT 10.0; Win64; x64) AppleWebKit/537.36 (KHTML, like Gecko) Chrome/127.0.0.0 Safari/537.36" version="24.7.7">
  <diagram name="Page-1" id="03018318-947c-dd8e-b7a3-06fadd420f32">
    <mxGraphModel dx="1114" dy="692" grid="1" gridSize="10" guides="1" tooltips="1" connect="1" arrows="1" fold="1" page="1" pageScale="1" pageWidth="1100" pageHeight="850" background="#ffffff" math="0" shadow="0">
      <root>
        <mxCell id="0" />
        <mxCell id="1" parent="0" />
        <mxCell id="GwGHnUbJskPZnRHtNYZQ-2" value="LOGO" style="rounded=0;whiteSpace=wrap;html=1;shadow=0;glass=0;fontStyle=1;fontSize=24;fillColor=#000000;strokeColor=#3700CC;fontColor=#ffffff;verticalAlign=top;" parent="1" vertex="1">
          <mxGeometry width="1100" height="120" as="geometry" />
        </mxCell>
        <mxCell id="GwGHnUbJskPZnRHtNYZQ-3" style="edgeStyle=orthogonalEdgeStyle;rounded=0;orthogonalLoop=1;jettySize=auto;html=1;" parent="1" source="GwGHnUbJskPZnRHtNYZQ-2" target="GwGHnUbJskPZnRHtNYZQ-2" edge="1">
          <mxGeometry relative="1" as="geometry">
            <Array as="points" />
          </mxGeometry>
        </mxCell>
        <mxCell id="GwGHnUbJskPZnRHtNYZQ-10" value="" style="edgeStyle=none;curved=1;rounded=0;orthogonalLoop=1;jettySize=auto;html=1;fontSize=12;startSize=8;endSize=8;" parent="1" edge="1">
          <mxGeometry relative="1" as="geometry">
            <mxPoint x="130" y="95.00000000000011" as="sourcePoint" />
            <mxPoint x="250" y="95.00000000000011" as="targetPoint" />
          </mxGeometry>
        </mxCell>
        <mxCell id="GwGHnUbJskPZnRHtNYZQ-12" value="" style="edgeStyle=none;curved=1;rounded=0;orthogonalLoop=1;jettySize=auto;html=1;fontSize=12;startSize=8;endSize=8;" parent="1" edge="1">
          <mxGeometry relative="1" as="geometry">
            <mxPoint x="310" y="95.00000000000011" as="sourcePoint" />
            <mxPoint x="430" y="95.00000000000011" as="targetPoint" />
          </mxGeometry>
        </mxCell>
        <mxCell id="GwGHnUbJskPZnRHtNYZQ-14" value="" style="edgeStyle=none;curved=1;rounded=0;orthogonalLoop=1;jettySize=auto;html=1;fontSize=12;startSize=8;endSize=8;" parent="1" edge="1">
          <mxGeometry relative="1" as="geometry">
            <mxPoint x="490" y="95.00000000000011" as="sourcePoint" />
            <mxPoint x="610" y="95.00000000000011" as="targetPoint" />
          </mxGeometry>
        </mxCell>
        <mxCell id="GwGHnUbJskPZnRHtNYZQ-16" value="" style="edgeStyle=none;curved=1;rounded=0;orthogonalLoop=1;jettySize=auto;html=1;fontSize=12;startSize=8;endSize=8;" parent="1" edge="1">
          <mxGeometry relative="1" as="geometry">
            <mxPoint x="670" y="95.00000000000011" as="sourcePoint" />
            <mxPoint x="790" y="95.00000000000011" as="targetPoint" />
          </mxGeometry>
        </mxCell>
        <mxCell id="GwGHnUbJskPZnRHtNYZQ-20" value="" style="html=1;shadow=0;dashed=0;fillColor=#000000;strokeColor=none;fontSize=16;fontColor=#ffffff;align=left;spacing=15;labelBackgroundColor=none;rounded=0;" parent="1" vertex="1">
          <mxGeometry y="60" width="1100" height="60" as="geometry" />
        </mxCell>
        <mxCell id="GwGHnUbJskPZnRHtNYZQ-21" value="" style="swimlane;shape=mxgraph.bootstrap.anchor;strokeColor=none;fillColor=none;fontColor=#0085FC;fontStyle=0;childLayout=stackLayout;horizontal=0;startSize=0;horizontalStack=1;resizeParent=1;resizeParentMax=0;resizeLast=0;collapsible=0;marginBottom=0;whiteSpace=wrap;html=1;resizeWidth=0;rounded=0;" parent="GwGHnUbJskPZnRHtNYZQ-20" vertex="1">
          <mxGeometry y="10" width="350" height="40" as="geometry" />
        </mxCell>
        <mxCell id="GwGHnUbJskPZnRHtNYZQ-22" value="Navbar" style="text;strokeColor=none;align=left;verticalAlign=middle;spacingLeft=15;spacingRight=10;points=[[0,0.5],[1,0.5]];portConstraint=eastwest;rotatable=0;whiteSpace=wrap;html=1;fillColor=none;fontColor=#ffffff;fontSize=16;rounded=0;" parent="GwGHnUbJskPZnRHtNYZQ-21" vertex="1">
          <mxGeometry width="80" height="40" as="geometry" />
        </mxCell>
        <mxCell id="GwGHnUbJskPZnRHtNYZQ-23" value="Home" style="text;strokeColor=none;align=center;verticalAlign=middle;spacingLeft=10;spacingRight=10;points=[[0,0.5],[1,0.5]];portConstraint=eastwest;rotatable=0;whiteSpace=wrap;html=1;fillColor=none;fontColor=#ffffff;fontSize=14;rounded=0;" parent="GwGHnUbJskPZnRHtNYZQ-21" vertex="1">
          <mxGeometry x="80" width="60" height="40" as="geometry" />
        </mxCell>
        <mxCell id="GwGHnUbJskPZnRHtNYZQ-24" value="Features" style="text;strokeColor=none;align=center;verticalAlign=middle;spacingLeft=10;spacingRight=10;points=[[0,0.5],[1,0.5]];portConstraint=eastwest;rotatable=0;whiteSpace=wrap;html=1;fillColor=none;fontColor=#9A9DA0;fontSize=14;rounded=0;" parent="GwGHnUbJskPZnRHtNYZQ-21" vertex="1">
          <mxGeometry x="140" width="80" height="40" as="geometry" />
        </mxCell>
        <mxCell id="GwGHnUbJskPZnRHtNYZQ-25" value="Pricing" style="text;strokeColor=none;align=left;verticalAlign=middle;spacingLeft=5;spacingRight=10;points=[[0,0.5],[1,0.5]];portConstraint=eastwest;rotatable=0;whiteSpace=wrap;html=1;fillColor=none;fontColor=#9A9DA0;fontSize=14;rounded=0;" parent="GwGHnUbJskPZnRHtNYZQ-21" vertex="1">
          <mxGeometry x="220" width="70" height="40" as="geometry" />
        </mxCell>
        <mxCell id="GwGHnUbJskPZnRHtNYZQ-26" value="About" style="text;strokeColor=none;align=center;verticalAlign=middle;spacingLeft=10;spacingRight=10;points=[[0,0.5],[1,0.5]];portConstraint=eastwest;rotatable=0;whiteSpace=wrap;html=1;fillColor=none;fontColor=#9A9DA0;fontSize=14;rounded=0;" parent="GwGHnUbJskPZnRHtNYZQ-21" vertex="1">
          <mxGeometry x="290" width="60" height="40" as="geometry" />
        </mxCell>
        <mxCell id="GwGHnUbJskPZnRHtNYZQ-27" value="Search" style="html=1;shadow=0;dashed=0;shape=mxgraph.bootstrap.rrect;rSize=5;fontSize=14;fontColor=#1CA5B8;strokeColor=#1CA5B8;fillColor=none;rounded=0;" parent="GwGHnUbJskPZnRHtNYZQ-20" vertex="1">
          <mxGeometry x="1" width="70" height="40" relative="1" as="geometry">
            <mxPoint x="-80" y="10" as="offset" />
          </mxGeometry>
        </mxCell>
        <mxCell id="GwGHnUbJskPZnRHtNYZQ-28" value="Search" style="html=1;shadow=0;dashed=0;shape=mxgraph.bootstrap.rrect;rSize=5;fontSize=14;fontColor=#6C767D;strokeColor=#CED4DA;fillColor=#ffffff;align=left;spacing=10;rounded=0;" parent="GwGHnUbJskPZnRHtNYZQ-20" vertex="1">
          <mxGeometry x="1" width="180" height="40" relative="1" as="geometry">
            <mxPoint x="-270" y="10" as="offset" />
          </mxGeometry>
        </mxCell>
        <mxCell id="xCNlf9hF5fUjS3rGwvs--8" value="" style="rounded=0;whiteSpace=wrap;html=1;fillColor=#000000;glass=0;" vertex="1" parent="1">
          <mxGeometry y="130" width="1100" height="240" as="geometry" />
        </mxCell>
        <mxCell id="xCNlf9hF5fUjS3rGwvs--9" value="" style="rounded=0;whiteSpace=wrap;html=1;fillColor=#000000;glass=0;" vertex="1" parent="1">
          <mxGeometry y="390" width="1100" height="240" as="geometry" />
        </mxCell>
        <mxCell id="xCNlf9hF5fUjS3rGwvs--10" value="First slide" style="html=1;shadow=0;dashed=0;strokeColor=none;strokeWidth=1;fillColor=#777777;fontColor=#555555;whiteSpace=wrap;align=center;verticalAlign=middle;fontStyle=0;fontSize=40;" vertex="1" parent="1">
          <mxGeometry x="20" y="130" width="1060" height="240" as="geometry" />
        </mxCell>
        <mxCell id="xCNlf9hF5fUjS3rGwvs--11" value="" style="html=1;verticalLabelPosition=bottom;labelBackgroundColor=#ffffff;verticalAlign=top;shadow=0;dashed=0;strokeWidth=4;shape=mxgraph.ios7.misc.more;strokeColor=#a0a0a0;" vertex="1" parent="xCNlf9hF5fUjS3rGwvs--10">
          <mxGeometry x="1" y="0.5" width="7" height="14" relative="1" as="geometry">
            <mxPoint x="-50" y="-7" as="offset" />
          </mxGeometry>
        </mxCell>
        <mxCell id="xCNlf9hF5fUjS3rGwvs--12" value="" style="flipH=1;html=1;verticalLabelPosition=bottom;labelBackgroundColor=#ffffff;verticalAlign=top;shadow=0;dashed=0;strokeWidth=4;shape=mxgraph.ios7.misc.more;strokeColor=#a0a0a0;" vertex="1" parent="xCNlf9hF5fUjS3rGwvs--10">
          <mxGeometry y="0.5" width="7" height="14" relative="1" as="geometry">
            <mxPoint x="43" y="-7" as="offset" />
          </mxGeometry>
        </mxCell>
        <mxCell id="xCNlf9hF5fUjS3rGwvs--13" value="" style="html=1;shadow=0;strokeColor=none;fillColor=#ffffff;" vertex="1" parent="xCNlf9hF5fUjS3rGwvs--10">
          <mxGeometry x="0.5" y="1" width="30" height="4" relative="1" as="geometry">
            <mxPoint x="-50" y="-20" as="offset" />
          </mxGeometry>
        </mxCell>
        <mxCell id="xCNlf9hF5fUjS3rGwvs--14" value="" style="html=1;shadow=0;strokeColor=none;fillColor=#BBBBBB;" vertex="1" parent="xCNlf9hF5fUjS3rGwvs--10">
          <mxGeometry x="0.5" y="1" width="30" height="4" relative="1" as="geometry">
            <mxPoint x="-15" y="-20" as="offset" />
          </mxGeometry>
        </mxCell>
        <mxCell id="xCNlf9hF5fUjS3rGwvs--15" value="" style="html=1;shadow=0;strokeColor=none;fillColor=#BBBBBB;" vertex="1" parent="xCNlf9hF5fUjS3rGwvs--10">
          <mxGeometry x="0.5" y="1" width="30" height="4" relative="1" as="geometry">
            <mxPoint x="20" y="-20" as="offset" />
          </mxGeometry>
        </mxCell>
        <mxCell id="xCNlf9hF5fUjS3rGwvs--16" value="&lt;font style=&quot;font-size: 16px&quot;&gt;&lt;b&gt;First slide label&lt;/b&gt;&lt;/font&gt;&lt;br style=&quot;font-size: 14px&quot;&gt;&lt;br style=&quot;font-size: 14px&quot;&gt;Nulla vitae elit libero, a pharetra augue mollis interdum." style="html=1;shadow=0;strokeColor=none;fillColor=none;resizeWidth=1;fontColor=#FFFFFF;fontSize=14;" vertex="1" parent="xCNlf9hF5fUjS3rGwvs--10">
          <mxGeometry y="1" width="1060" height="60" relative="1" as="geometry">
            <mxPoint y="-90" as="offset" />
          </mxGeometry>
        </mxCell>
        <mxCell id="xCNlf9hF5fUjS3rGwvs--19" value="" style="edgeStyle=orthogonalEdgeStyle;orthogonalLoop=1;jettySize=auto;html=1;" edge="1" parent="1">
          <mxGeometry relative="1" as="geometry">
            <mxPoint x="180" y="510" as="sourcePoint" />
            <mxPoint x="260" y="510" as="targetPoint" />
          </mxGeometry>
        </mxCell>
        <mxCell id="xCNlf9hF5fUjS3rGwvs--21" value="" style="edgeStyle=orthogonalEdgeStyle;orthogonalLoop=1;jettySize=auto;html=1;" edge="1" parent="1">
          <mxGeometry relative="1" as="geometry">
            <mxPoint x="400" y="510" as="sourcePoint" />
            <mxPoint x="480" y="510" as="targetPoint" />
          </mxGeometry>
        </mxCell>
        <mxCell id="xCNlf9hF5fUjS3rGwvs--23" value="" style="edgeStyle=orthogonalEdgeStyle;orthogonalLoop=1;jettySize=auto;html=1;" edge="1" parent="1">
          <mxGeometry relative="1" as="geometry">
            <mxPoint x="620" y="510" as="sourcePoint" />
            <mxPoint x="740" y="510" as="targetPoint" />
          </mxGeometry>
        </mxCell>
        <mxCell id="xCNlf9hF5fUjS3rGwvs--32" value="" style="rounded=0;whiteSpace=wrap;html=1;fillColor=#000000;glass=0;" vertex="1" parent="1">
          <mxGeometry y="630" width="1100" height="240" as="geometry" />
        </mxCell>
        <mxCell id="xCNlf9hF5fUjS3rGwvs--24" value="&lt;b&gt;&lt;font style=&quot;font-size: 20px&quot;&gt;Card title&lt;/font&gt;&lt;/b&gt;&lt;br&gt;&lt;br&gt;This is a wider card with supporting text below as a natural lead-in to additional content. This content is a little bit longer." style="html=1;shadow=0;dashed=0;shape=mxgraph.bootstrap.rrect;rSize=5;strokeColor=#DFDFDF;html=1;whiteSpace=wrap;fillColor=#ffffff;fontColor=#000000;verticalAlign=top;align=left;spacing=20;spacingBottom=0;fontSize=14;spacingTop=160;" vertex="1" parent="1">
          <mxGeometry x="150" y="420" width="370" height="290" as="geometry" />
        </mxCell>
        <mxCell id="xCNlf9hF5fUjS3rGwvs--25" value="Image cap" style="html=1;shadow=0;dashed=0;shape=mxgraph.bootstrap.topButton;rSize=5;perimeter=none;whiteSpace=wrap;fillColor=#868E96;strokeColor=#DFDFDF;fontColor=#DEE2E6;resizeWidth=1;fontSize=18;" vertex="1" parent="xCNlf9hF5fUjS3rGwvs--24">
          <mxGeometry width="370" height="160" relative="1" as="geometry" />
        </mxCell>
        <mxCell id="xCNlf9hF5fUjS3rGwvs--26" value="&lt;b&gt;&lt;font style=&quot;font-size: 20px&quot;&gt;Card title&lt;/font&gt;&lt;/b&gt;&lt;br&gt;&lt;br&gt;This is a wider card with supporting text below as a natural lead-in to additional content. This content is a little bit longer." style="html=1;shadow=0;dashed=0;shape=mxgraph.bootstrap.rrect;rSize=5;strokeColor=#DFDFDF;html=1;whiteSpace=wrap;fillColor=#ffffff;fontColor=#000000;verticalAlign=top;align=left;spacing=20;spacingBottom=0;fontSize=14;spacingTop=160;" vertex="1" parent="1">
          <mxGeometry x="600" y="420" width="370" height="290" as="geometry" />
        </mxCell>
        <mxCell id="xCNlf9hF5fUjS3rGwvs--27" value="Image cap" style="html=1;shadow=0;dashed=0;shape=mxgraph.bootstrap.topButton;rSize=5;perimeter=none;whiteSpace=wrap;fillColor=#868E96;strokeColor=#DFDFDF;fontColor=#DEE2E6;resizeWidth=1;fontSize=18;" vertex="1" parent="xCNlf9hF5fUjS3rGwvs--26">
          <mxGeometry width="370" height="160" relative="1" as="geometry" />
        </mxCell>
        <mxCell id="xCNlf9hF5fUjS3rGwvs--33" value="" style="rounded=0;whiteSpace=wrap;html=1;fillColor=#000000;glass=0;" vertex="1" parent="1">
          <mxGeometry y="870" width="1100" height="240" as="geometry" />
        </mxCell>
        <mxCell id="xCNlf9hF5fUjS3rGwvs--28" value="&lt;b&gt;&lt;font style=&quot;font-size: 20px&quot;&gt;Card title&lt;/font&gt;&lt;/b&gt;&lt;br&gt;&lt;br&gt;This is a wider card with supporting text below as a natural lead-in to additional content." style="html=1;shadow=0;dashed=0;shape=mxgraph.bootstrap.rrect;rSize=5;strokeColor=#DFDFDF;html=1;whiteSpace=wrap;fillColor=#ffffff;fontColor=#000000;verticalAlign=top;align=left;spacing=20;spacingBottom=0;fontSize=14;spacingTop=160;" vertex="1" parent="1">
          <mxGeometry x="150" y="740" width="370" height="270" as="geometry" />
        </mxCell>
        <mxCell id="xCNlf9hF5fUjS3rGwvs--29" value="Image cap" style="html=1;shadow=0;dashed=0;shape=mxgraph.bootstrap.topButton;rSize=5;perimeter=none;whiteSpace=wrap;fillColor=#868E96;strokeColor=#DFDFDF;fontColor=#DEE2E6;resizeWidth=1;fontSize=18;" vertex="1" parent="xCNlf9hF5fUjS3rGwvs--28">
          <mxGeometry width="370" height="160" relative="1" as="geometry" />
        </mxCell>
        <mxCell id="xCNlf9hF5fUjS3rGwvs--34" value="&lt;b&gt;&lt;font style=&quot;font-size: 20px&quot;&gt;Card title&lt;/font&gt;&lt;/b&gt;&lt;br&gt;&lt;br&gt;This is a wider card with supporting text below as a natural lead-in to additional content." style="html=1;shadow=0;dashed=0;shape=mxgraph.bootstrap.rrect;rSize=5;strokeColor=#DFDFDF;html=1;whiteSpace=wrap;fillColor=#ffffff;fontColor=#000000;verticalAlign=top;align=left;spacing=20;spacingBottom=0;fontSize=14;spacingTop=160;" vertex="1" parent="1">
          <mxGeometry x="600" y="740" width="370" height="270" as="geometry" />
        </mxCell>
        <mxCell id="xCNlf9hF5fUjS3rGwvs--35" value="Image cap" style="html=1;shadow=0;dashed=0;shape=mxgraph.bootstrap.topButton;rSize=5;perimeter=none;whiteSpace=wrap;fillColor=#868E96;strokeColor=#DFDFDF;fontColor=#DEE2E6;resizeWidth=1;fontSize=18;" vertex="1" parent="xCNlf9hF5fUjS3rGwvs--34">
          <mxGeometry width="370" height="160" relative="1" as="geometry" />
        </mxCell>
        <mxCell id="xCNlf9hF5fUjS3rGwvs--38" value="&lt;font color=&quot;#ffffff&quot;&gt;contact&lt;/font&gt;" style="rounded=0;whiteSpace=wrap;html=1;fillColor=#000000;glass=0;" vertex="1" parent="1">
          <mxGeometry y="1140" width="1100" height="240" as="geometry" />
        </mxCell>
      </root>
    </mxGraphModel>
  </diagram>
</mxfile>
